<svg width="131" height="48" viewBox="0 0 131 48" fill="none" xmlns="http://www.w3.org/2000/svg">
<rect x="0.187302" width="130.435" height="48" rx="8" fill="#FF6E30"/>
<path d="M41.2677 30.112C40.489 30.112 39.785 29.9787 39.1557 29.712C38.537 29.4453 38.0464 29.0613 37.6837 28.56C37.321 28.0587 37.1344 27.4667 37.1237 26.784H39.5237C39.5557 27.2427 39.7157 27.6053 40.0037 27.872C40.3024 28.1387 40.7077 28.272 41.2197 28.272C41.7424 28.272 42.153 28.1493 42.4517 27.904C42.7504 27.648 42.8997 27.3173 42.8997 26.912C42.8997 26.5813 42.7984 26.3093 42.5957 26.096C42.393 25.8827 42.137 25.7173 41.8277 25.6C41.529 25.472 41.113 25.3333 40.5797 25.184C39.8544 24.9707 39.2624 24.7627 38.8037 24.56C38.3557 24.3467 37.9664 24.032 37.6357 23.616C37.3157 23.1893 37.1557 22.624 37.1557 21.92C37.1557 21.2587 37.321 20.6827 37.6517 20.192C37.9824 19.7013 38.4464 19.328 39.0437 19.072C39.641 18.8053 40.3237 18.672 41.0917 18.672C42.2437 18.672 43.177 18.9547 43.8917 19.52C44.617 20.0747 45.017 20.8533 45.0917 21.856H42.6277C42.6064 21.472 42.441 21.1573 42.1317 20.912C41.833 20.656 41.433 20.528 40.9317 20.528C40.4944 20.528 40.1424 20.64 39.8757 20.864C39.6197 21.088 39.4917 21.4133 39.4917 21.84C39.4917 22.1387 39.5877 22.3893 39.7797 22.592C39.9824 22.784 40.2277 22.944 40.5157 23.072C40.8144 23.1893 41.2304 23.328 41.7637 23.488C42.489 23.7013 43.081 23.9147 43.5397 24.128C43.9984 24.3413 44.393 24.6613 44.7237 25.088C45.0544 25.5147 45.2197 26.0747 45.2197 26.768C45.2197 27.3653 45.065 27.92 44.7557 28.432C44.4464 28.944 43.993 29.3547 43.3957 29.664C42.7984 29.9627 42.089 30.112 41.2677 30.112ZM55.4017 25.376C55.4017 25.696 55.3804 25.984 55.3377 26.24H48.8577C48.911 26.88 49.135 27.3813 49.5297 27.744C49.9244 28.1067 50.4097 28.288 50.9857 28.288C51.8177 28.288 52.4097 27.9307 52.7617 27.216H55.1777C54.9217 28.0693 54.431 28.7733 53.7057 29.328C52.9804 29.872 52.0897 30.144 51.0337 30.144C50.1804 30.144 49.4124 29.9573 48.7297 29.584C48.0577 29.2 47.5297 28.6613 47.1457 27.968C46.7724 27.2747 46.5857 26.4747 46.5857 25.568C46.5857 24.6507 46.7724 23.8453 47.1457 23.152C47.519 22.4587 48.0417 21.9253 48.7137 21.552C49.3857 21.1787 50.159 20.992 51.0337 20.992C51.8764 20.992 52.6284 21.1733 53.2897 21.536C53.9617 21.8987 54.479 22.416 54.8417 23.088C55.215 23.7493 55.4017 24.512 55.4017 25.376ZM53.0817 24.736C53.071 24.16 52.863 23.7013 52.4577 23.36C52.0524 23.008 51.5564 22.832 50.9697 22.832C50.415 22.832 49.9457 23.0027 49.5617 23.344C49.1884 23.6747 48.959 24.1387 48.8737 24.736H53.0817ZM56.4607 25.536C56.4607 24.64 56.6367 23.8453 56.9887 23.152C57.3514 22.4587 57.8367 21.9253 58.4447 21.552C59.0634 21.1787 59.7514 20.992 60.5087 20.992C61.17 20.992 61.746 21.1253 62.2367 21.392C62.738 21.6587 63.138 21.9947 63.4367 22.4V21.136H65.6927V30H63.4367V28.704C63.1487 29.12 62.7487 29.4667 62.2367 29.744C61.7354 30.0107 61.154 30.144 60.4927 30.144C59.746 30.144 59.0634 29.952 58.4447 29.568C57.8367 29.184 57.3514 28.6453 56.9887 27.952C56.6367 27.248 56.4607 26.4427 56.4607 25.536ZM63.4367 25.568C63.4367 25.024 63.33 24.56 63.1167 24.176C62.9034 23.7813 62.6154 23.4827 62.2527 23.28C61.89 23.0667 61.5007 22.96 61.0847 22.96C60.6687 22.96 60.2847 23.0613 59.9327 23.264C59.5807 23.4667 59.2927 23.7653 59.0687 24.16C58.8554 24.544 58.7487 25.0027 58.7487 25.536C58.7487 26.0693 58.8554 26.5387 59.0687 26.944C59.2927 27.3387 59.5807 27.6427 59.9327 27.856C60.2954 28.0693 60.6794 28.176 61.0847 28.176C61.5007 28.176 61.89 28.0747 62.2527 27.872C62.6154 27.6587 62.9034 27.36 63.1167 26.976C63.33 26.5813 63.4367 26.112 63.4367 25.568ZM70.1204 22.512C70.4084 22.0427 70.7818 21.6747 71.2404 21.408C71.7098 21.1413 72.2431 21.008 72.8404 21.008V23.36H72.2484C71.5444 23.36 71.0111 23.5253 70.6484 23.856C70.2964 24.1867 70.1204 24.7627 70.1204 25.584V30H67.8804V21.136H70.1204V22.512ZM73.7732 25.568C73.7732 24.6507 73.9599 23.8507 74.3332 23.168C74.7065 22.4747 75.2239 21.9413 75.8852 21.568C76.5465 21.184 77.3039 20.992 78.1572 20.992C79.2559 20.992 80.1625 21.2693 80.8772 21.824C81.6025 22.368 82.0879 23.136 82.3332 24.128H79.9172C79.7892 23.744 79.5705 23.4453 79.2612 23.232C78.9625 23.008 78.5892 22.896 78.1412 22.896C77.5012 22.896 76.9945 23.1307 76.6212 23.6C76.2479 24.0587 76.0612 24.7147 76.0612 25.568C76.0612 26.4107 76.2479 27.0667 76.6212 27.536C76.9945 27.9947 77.5012 28.224 78.1412 28.224C79.0479 28.224 79.6399 27.8187 79.9172 27.008H82.3332C82.0879 27.968 81.6025 28.7307 80.8772 29.296C80.1519 29.8613 79.2452 30.144 78.1572 30.144C77.3039 30.144 76.5465 29.9573 75.8852 29.584C75.2239 29.2 74.7065 28.6667 74.3332 27.984C73.9599 27.2907 73.7732 26.4853 73.7732 25.568ZM88.9662 21.008C89.6382 21.008 90.2355 21.1573 90.7582 21.456C91.2809 21.744 91.6862 22.176 91.9742 22.752C92.2729 23.3173 92.4222 24 92.4222 24.8V30H90.1822V25.104C90.1822 24.4 90.0062 23.8613 89.6542 23.488C89.3022 23.104 88.8222 22.912 88.2142 22.912C87.5955 22.912 87.1049 23.104 86.7422 23.488C86.3902 23.8613 86.2142 24.4 86.2142 25.104V30H83.9742V18.16H86.2142V22.24C86.5022 21.856 86.8862 21.5573 87.3662 21.344C87.8462 21.12 88.3795 21.008 88.9662 21.008Z" fill="white"/>
</svg>
